<svg aria-hidden="true" style="position: absolute; width: 0; height: 0; overflow: hidden;" version="1.1" xmlns="http://www.w3.org/2000/svg" xmlns:xlink="http://www.w3.org/1999/xlink">
<defs>
<symbol id="icon-logo-1" viewBox="0 0 143 32">
<path d="M116.832 0.992c-1.664 0.64-2.784 2.496-2.528 4.16 0.064 0.608 0.288 0.768 1.056 0.768s0.992-0.16 1.056-0.8c0.064-0.448 0.352-1.056 0.608-1.376 0.48-0.48 1.344-0.544 9.376-0.544 9.568 0 9.248-0.064 9.824 1.76 0.256 0.768 0.48 0.96 1.248 0.96 0.8 0 0.928-0.128 1.024-0.96 0.128-1.28-1.056-3.040-2.496-3.744-0.992-0.512-2.144-0.576-9.76-0.544-4.736 0-8.992 0.16-9.408 0.32zM0.96 4.576c0 0.128 0.448 0.32 0.96 0.448 1.888 0.352 1.92 0.512 1.92 11.616 0 5.536-0.096 10.4-0.192 10.784-0.128 0.512-0.608 0.864-1.44 1.12-0.704 0.192-1.248 0.448-1.248 0.544 0 0.128 2.176 0.224 4.8 0.224 4.704 0.032 6.080-0.224 3.52-0.672-2.208-0.384-2.272-0.544-2.176-6.176l0.096-5.024 2.016 0.064c2.528 0.064 3.104 0.544 3.584 2.848 0.192 0.96 0.48 1.728 0.64 1.728s0.256-2.24 0.224-4.96c-0.064-4.96-0.448-6.272-0.928-3.36-0.384 2.176-1.408 3.008-3.68 3.040h-1.856l-0.096-5.344c-0.096-6.592-0.256-6.336 3.968-6.336 4.768 0 5.856 0.8 6.4 4.736 0.32 2.464 0.768 2.016 0.768-0.832 0-1.344 0.096-2.976 0.192-3.584l0.192-1.12h-8.832c-4.864 0-8.832 0.096-8.832 0.256zM24.992 14.496c-4.544 11.744-5.184 13.12-6.272 13.856-0.448 0.288-0.8 0.608-0.8 0.736 0 0.096 1.44 0.224 3.2 0.256 1.76 0 3.2-0.064 3.2-0.192 0-0.16-0.576-0.416-1.28-0.64-2.016-0.608-2.080-1.824-0.384-6.336l0.864-2.336h8.736l1.344 3.648c0.736 1.984 1.28 3.904 1.216 4.224-0.064 0.384-0.512 0.704-1.312 0.896-0.64 0.16-1.184 0.416-1.184 0.512 0 0.128 1.888 0.224 4.16 0.224 3.936-0.032 4.992-0.224 3.52-0.704-0.352-0.128-0.896-0.544-1.152-0.992-0.288-0.416-2.496-5.824-4.896-12.032-2.4-6.176-4.512-11.296-4.672-11.36-0.192-0.064-2.112 4.544-4.288 10.24zM30.016 13.92l1.92 5.12-3.84 0.096c-2.144 0.032-3.936 0.032-4-0.064-0.096-0.096 0.128-0.928 0.48-1.856 1.92-5.024 3.328-8.608 3.424-8.512 0.064 0.064 0.96 2.4 2.016 5.216zM41.28 4.576c0 0.128 0.448 0.32 0.96 0.448 1.888 0.352 1.92 0.512 1.92 11.616 0 5.536-0.096 10.4-0.192 10.784-0.128 0.512-0.608 0.864-1.44 1.12-0.704 0.192-1.248 0.448-1.248 0.576s4.096 0.224 9.088 0.224l9.088-0.032-0.032-3.616c-0.032-2.048-0.192-3.584-0.352-3.52s-0.48 0.96-0.704 2.048c-0.768 3.744-1.728 4.384-6.624 4.416-3.072 0-3.52-0.064-3.936-0.608-0.352-0.512-0.448-2.592-0.448-11.264 0-11.648-0.032-11.392 1.92-11.808 1.984-0.448 0.832-0.64-3.52-0.64-2.464 0-4.48 0.096-4.48 0.256zM66.4 4.48c-3.52 0.128-4.224 0.224-3.264 0.448 0.672 0.128 1.344 0.544 1.504 0.864 0.192 0.32 0.32 4.928 0.32 11.264 0 11.648 0.064 11.232-1.856 11.616-2.528 0.512-0.352 0.672 8.256 0.672 7.744-0.032 9.28-0.096 9.12-0.48-0.096-0.224-0.16-1.856-0.16-3.616 0-1.728-0.128-3.168-0.256-3.168s-0.48 1.024-0.768 2.272c-0.896 3.712-1.76 4.256-6.56 4.288-2.72 0-3.36-0.096-3.84-0.576-0.512-0.512-0.576-1.472-0.672-10.88-0.064-11.36-0.032-11.68 1.792-12.128 0.544-0.16 1.024-0.416 1.024-0.576 0-0.192-0.032-0.288-0.064-0.256-0.064 0.032-2.112 0.16-4.576 0.256zM92.256 4.704c-1.056 2.88-8.256 21.28-8.608 22.016-0.256 0.544-0.896 1.248-1.408 1.568-0.544 0.288-0.96 0.64-0.96 0.768s1.504 0.256 3.36 0.288c3.328 0.032 4.384-0.288 2.24-0.672-1.472-0.288-2.208-1.376-1.92-2.816 0.128-0.576 0.672-2.176 1.184-3.552l0.96-2.496 8.704 0.192 0.608 1.6c2.336 6.176 2.368 6.624 0.544 7.040-1.984 0.448-0.832 0.672 3.040 0.672 2.208 0 4-0.128 4-0.256 0-0.16-0.352-0.416-0.768-0.608-0.96-0.448-1.248-1.152-6.272-14.144-2.176-5.568-4.064-10.144-4.224-10.144s-0.384 0.256-0.48 0.544zM93.6 14.016c0.992 2.688 1.76 4.96 1.664 5.056-0.064 0.096-1.856 0.096-4 0.064l-3.84-0.096 1.952-5.184c1.088-2.848 2.080-5.088 2.176-4.96 0.128 0.128 1.024 2.432 2.048 5.12zM112.736 7.84c-0.576 0.256-1.344 0.928-1.696 1.504-0.64 1.024-0.64 1.472-0.576 10.432l0.096 9.408 1.024 0.896c1.728 1.536 2.656 1.632 15.552 1.536 16.384-0.128 15.264 0.768 15.264-12.096 0-9.472-0.096-10.016-2.208-11.424-1.088-0.736-1.12-0.736-13.76-0.736-10.144 0.032-12.864 0.128-13.696 0.48zM139.392 10.4l0.8 0.8-0.096 8.512c-0.096 8-0.128 8.512-0.704 8.96-0.512 0.352-2.848 0.448-13.184 0.448h-12.576l-0.48-0.704c-0.448-0.608-0.512-2.016-0.512-9.056 0.032-8.48 0.096-9.056 1.28-9.536 0.256-0.096 5.92-0.192 12.576-0.192l12.096-0.032 0.8 0.8z"></path>
<path d="M114.464 15.584c-0.448 0.416-0.192 2.208 0.416 3.232 1.152 1.856 1.888 1.984 11.424 1.984 7.52 0 8.704-0.064 9.696-0.576 2.24-1.12 3.424-4.32 1.792-4.736-1.024-0.256-1.344-0.032-1.632 1.056-0.416 1.728-0.224 1.696-9.76 1.696-8.192 0-8.896-0.032-9.376-0.576-0.32-0.32-0.544-0.8-0.544-1.056 0-0.928-1.408-1.664-2.016-1.024z"></path>
</symbol>
<symbol id="icon-cart" viewBox="0 0 32 32">
<path d="M12 29c0 1.657-1.343 3-3 3s-3-1.343-3-3c0-1.657 1.343-3 3-3s3 1.343 3 3z"></path>
<path d="M32 29c0 1.657-1.343 3-3 3s-3-1.343-3-3c0-1.657 1.343-3 3-3s3 1.343 3 3z"></path>
<path d="M32 16v-12h-24c0-1.105-0.895-2-2-2h-6v2h4l1.502 12.877c-0.915 0.733-1.502 1.859-1.502 3.123 0 2.209 1.791 4 4 4h24v-2h-24c-1.105 0-2-0.895-2-2 0-0.007 0-0.014 0-0.020l26-3.98z"></path>
</symbol>
<symbol id="icon-mobile" viewBox="0 0 32 32">
<path d="M23 0h-14c-1.65 0-3 1.35-3 3v26c0 1.65 1.35 3 3 3h14c1.65 0 3-1.35 3-3v-26c0-1.65-1.35-3-3-3zM12 1.5h8v1h-8v-1zM16 30c-1.105 0-2-0.895-2-2s0.895-2 2-2 2 0.895 2 2-0.895 2-2 2zM24 24h-16v-20h16v20z"></path>
</symbol>
</defs>
</svg>
